/* XPM */
static char *_168661b94324b41e9b9ed0a02353400lomLRQ6h8YTZBh9T[] = {
/* columns rows colors chars-per-pixel */
"64 64 10 1 ",
"  c #042B1D",
". c #053B19",
"X c #043825",
"o c #003E1C",
"O c #164D3D",
"+ c #1A523F",
"@ c #16614B",
"# c #2A6E58",
"$ c #75BB99",,
"% c white",
/* pixels */
"$$$$$$$$$$$$$$$$$$$$$$$$$$$$$$$$$$$$$$$$$$$$$$$$$$$$$$$$$$$$$$$$",
"$$$$$$$$$$$$$$$$$$$$$$$$$$$$$$$$$$$$$$$$$$$$$$$$$$$$$$$$$$$$$$$$",
"$$$$$$$$$$$$$$$$$$$$$$$$$$$$$$$$$$$$$$$$$$$$$$$$$$$$$$$$$$$$$$$$",
"$$$$$$$$$$$$$$$$$$$$$$$$$$$$$$$$$$$$$$$$$$$$$$$$$$$$$$$$$$$$$$$$",
"$$$$$$$$$$$$$$$$$$$$$$$$$$$$$$$$$$$$$$$$$$$$$$$$$$$$$$$$$$$$$$$$",
"$$$$$$$$$$$$$$$$$$$$$$$$$$$$$$$$$$$$$$$$$$$$$$$$$$$$$$$$$$$$$$$$",
"$$$$$$$$$$$$$$$$$$$$$$$$$$$$$$$$$$$$$$$$$$$$$$$$$$$$$$$$$$$$$$$$",
"$$$$$$$$$$$$$$$$$$$$$$$$$$$$$$$$$$$$$$$$$$$$$$$$$$$$$$$$$$$$$$$$",
"$$$$$$$$$$$$$$$$$$$$$$$$$$$$$$$$$$$$$%$$$$$$$$$$$$$$$$$$$$$$$$$$",
"$$$$$$$$$$$$$$$$$$$$$$$oo$$$$$$$o$oo%o%o$$$$$$$$$$$$$$$$$$$$$$$$",
"$$$$$$$$$$$$$$$$$$$$oooo+oo$+o+oooooo%o+oo$$$$$$$$$$$$$$$$$$$$$$",
"$$$$$$$$$$$$$$$$$$$oooo++oooooooo+ooooooo$$$$$$$$$$$$$$$$$$$$$$$",
"$$$$$$$$$$$$$$$$$$$oooooooooooooooooooooo+o$$$$o$$$$$$$$$$$$$$$$",
"$$$$$$$$$$$$$$$$$$oooooooo+oo+oooo..ooooooo$ooooooo$$$$$$$$$$$$$",
"$$$$$$$$$$$$$$$$$$ooo++oo+oooooo+o@@.ooo+o++ooooooo..$$$$$$$$$$$",
"$$$$$$$$$$$$$$$$+ooo+ooo.oooooo++o+o@ooo+oooo..oooo@%.$$$$$$$$$$",
"$$$$$$$$$$$$$$$$+o+ooooo@.ooo+ooooooooooo.o.o@@.o.o%o%$$$$$$$$$$",
"$$$$$$$$$$$$$++++ooo%oooo@ooo++Xoo+Xooo+o.o.o...o.oo%.$$$$$$$$$$",
"$$$$$$$$$$$$$++++oo%o%ooo.oo+++@ooo@oo.oo@o@o@@@o.ooo..$$$$$$$$$",
"$$$$$$$$$$$$$+++oooo%oooo@oo+++++ooooo%++o.oo.o.o@ooo@@o$$$$$$$$",
"$$$$$$$$$$$$o$$ooooooooooooo++o++.o++%o%oo@.o.o@ooooooooo$$$$$$$",
"$$$$$$$$$$$$+o+oooooooooooo++++oo@oo+o%oooo@o@oooooooooo$$$$$$$$",
"$$$$$$$$$$$$$oo+ooooooooooo++++oo++oooooooooo@oooooooo+oo$$$$$$$",
"$$$$$$XX$$$$$ oooooo.ooooooo++o++oo+oooooooooooooooooooooo$$$$$$",
"$$$$.X.X.  . ++ooooo@o.ooo+o++o+oooooooooooooooooooooooooo$$$$$$",
"$$$X..X......ooooo.ooo@ooo++oo+o++oo+oooooooooooooooooooo$$$$$$$",
"$$$...........ooo.@oooo+oooooooo+o+ooooo.oooooo.oooooooooo$$$$$$",
"$............oo%o@o.oooooooo+ooooooooooo@oooooo.%ooooooooo$$$$$$",
"$.............%o%oo@ooooooooooooooooooooooooooo%o%+ooooo+$$$$$$$",
".............oo%oooooooooo.ooooo.oooooooooooooo.%oooooooo$$$$$$$",
"..............ooooooooo+oo@ooooo@ooooooooooooo.@oooooooOOo$$$$$$",
"..............ooooooo.ooooooo.o.o.oo+ooooooooo@ooooo+oooo$$$$$$$",
"$............@ooooooo@ooooo%o@.@o@oo+++o.oo.oo+oo+ooo+o+o$$$$$$$",
"o.o............ooooooooooo%o%o@oooooo+oo@o.@oooooo..ooo+o$$$$$$$",
"$oo..........+..ooooooooooo%oooooooooo+ooo@oo+oooo.@oooo+$$$$$$$",
"$$o...........+ooooooooooooooooooo++++oooooooooooo@oooooo$$$$$$$",
"$$$ooo..o....o++o+.++o+oo.oooo%ooo++++oooooooooooooo.oo.oo$$$$$$",
"$$$$#o#ooooo++o+o+.ooo+++@o+o%o%oo+ooooooooooooooo+o@oo@oo$$$$$$",
"$$$$$$++++++++o+o+@o+++oo+ooo+%ooo+o+o+ooooooooooooooo.oooo$$$$$",
"$$$$$++++++++o+oo++++oo+o+o.Ooooo++.++++ooooo.o.oooooo@oo%o$$$$$",
"$$$$$++oo+o++o++o+++o+ooo+o@o+oooo+@+o++.+++..o@oo.ooooo%o%$$$$$",
"$$$$$+++++oo+o+o+++ooo+oO++o.ooooo+o++oo@oo+@.oooo@oooooo%O$$$$$",
"$$$$+oooo%o++o+oo+++oo++oo+o.o++oo++o++o+o++o@.ooooo.oooo$$$$$$$",
"$$$$oo++%+%+oo+oo+o..+++oooo@++ooo+.+o+o+.+o+o..oooo@oooooo$$$$$",
"$$$$ooo$+%.+o++++o+@.+O+++oooo.o+oo@o+ooO@+O+o@..ooo@oooooo$$$$$",
"$$$$oooooo@oooo+oo++@++++++o.+@ooooooooooO+o%o@@@ooo+oo+o+$o$$$$",
"$$$$o$oo++ooo+ooo+o+.+++++++..ooo.+.+oooooo%.%o+oo++o++++oo$$$$$",
"$$$$$$ooo.oooo++o+oo@+++.+++@@o+o.+oooo+ooo+%.o+o+ooo+oo+$oo$$$$",
"$$$$$o$o+@oooooooOOoo.++@oo+oo.oooooo.ooo+oo@.+++ooooooo+$o$$$$$",
"$$$$$$o$oo+oo+o+o+o++@++.oo+oo@.ooooo@oooooo+@o+o+o+++ooo$$$$$$$",
"$$$$$ooo$ooo++..+o+.o+++@ooo.oo@oooooo.oooo+.oo++++o+oooo$$$$$$$",
"$$$$$$$ooo+o+o@@o+o@oo++%o+.@ooooooooo.o+o+o@++o.+++oo$$$$$$$$$$",
"$$$$$$$$$$$++o+oo+oo%.+%o%o@ooooooooo.@o++++++oo@o+OO$$$$$$$$$$$",
"$$$$$$$$$$ooo++++oooo@oo%o+oooooooooo@ooo+o+o+oo+o+O$$$$$$$$$$$$",
"$$$$$$$$$$$oooooo+oo+o++ooo+.+o.oo.oo.o+.o+++o.+++$$$$$$$$$$$$$$",
"$$$$$$$$$$$$$$oOooo+ooooo+oo@.o@oo@..@++@+.+++@.+$$$$$$$$$$$$$$$",
"$$$$$$$$$$$$ooooooo+++oo+oo+o.ooo++@@+++O....+..$$$$$$$$$$$$$$$$",
"$$$$$$$$$$$$$$$$oo++o+o++ooo.@oo++O++++OO@@@@.$$$$$$$$$$$$$$$$$$",
"$$$$$$$$$$$$$$$$+++ooo++oo+o@OO+++++++OOOOO$O@$$$$$$$$$$$$$$$$$$",
"$$$$$$$$$$$$$$$$+$o++oo++oo++OOOOOO+OOOOOOO$$$$$$$$$$$$$$$$$$$$$",
"$$$$$$$$$$$$$$$$$+o+oo++o+++OOOOOOOOO$O$$$$$$$$$$$$$$$$$$$$$$$$$",
"$$$$$$$$$$$$$$$$$++ooo++oo++$$OO$OO$O$$$$$$$$$$$$$$$$$$$$$$$$$$$",
"$$$$$$$$$$$$$$$$$++oo+oo$++O$$$$$O$$O$$$$$$$$$$$$$$$$$$$$$$$$$$$",
"$$$$$$$$$$$$$$$$$$O++++o+$O$$$$$$$$$$$$$$$$$$$$$$$$$$$$$$$$$$$$$"
};
