/* XPM */
static char *_608f142d3b845338bd204af5d0217edwvBbVCO7JWrp5Fnk[] = {
/* columns rows colors chars-per-pixel */
"64 64 9 1 ",
"  c None",
". c black",
"X c #080208",
"o c #E64E37",
"O c #B52450",
"+ c #4FB6DB",
"@ c #EDB9ED",
"# c gray96",
"$ c white",
/* pixels */
"                            ........                            ",
"                            ...$$$..                            ",
"                        .....$$$$$$$......                      ",
"                       .$$$...$$$$$$$..$$$.                     ",
" ..                   .$$$$$$$$$$$$$$$$$$$$.               ..   ",
" ....           $     .$$$$$$$$$$$$$$$$$$$$.              ...   ",
" .#...                .$$$$$$$$$$$$$$$$$$$$.             .#..   ",
" .##.#.                .$$$$$$$$$$$$$$$$$$.             .#.#.   ",
" .##..#.                .....$$$$$$$$$....    $        .#..#.   ",
" .###.##.                   .$$$$$$$ $.               .#..##.   ",
" .###..##..                 .$$$$$$$$$.              .#..###.   ",
" .####.####.                .+++++++++.             .##.####.   ",
" .####..####.               .+++++++++.  $         .##..####.   ",
" .#####..###........................................##.#####.   ",
" .####oooooooooooooooooo####################################.   ",
" .####ooooooooooooooooooo###################################.   ",
" .##ooooooooooooooooooooo###################################.   ",
" .#ooooooooooooooooooooooo##################################.   ",
" .oooooooooooooooooooooooo##################################.   ",
" .oooooooooooooo....oooooo##############....################.   ",
" .oooooooooooooo....$ooooo##############....$###############.   ",
" .ooooooooooooo....$$$oooo#############....$$$##############.   ",
" .oooooooooooo.....$$$.ooo############.....$$$.#############.   ",
" .oooooooooooo......$..ooo############......$..#############.   ",
" .oooooooooooo.........ooo############.........#############.   ",
" .oo.ooooooooo.........ooo############.........##########.##.   ",
" .ooo..ooooooo.........ooo############.........########..###.   ",
" .ooooo..ooooo.........ooo############.........#######.#####.   ",
" .ooooooo..ooo.........ooo############.........######.######.   ",
" .ooooooooo.ooo.......oooo#############.......#####..#######.   ",
" .oooooooooooooo....ooooo###############....######....######.   ",
" .oo....oooooooo....ooooo###############....##########....##.   ",
" .oooooo....oooooooooooo####@@@#############################.   ",
" .ooooooo..oooooooooooo####@@@@@##################.#########.   ",
" .oooooo.oooooooooooooo#.###@@@##.#################..#######.   ",
" .ooooo.oooooooooooooo##.###..###.###################..#####.   ",
" .ooo..oooooooooooooo###.###..###.#####################..###.   ",
" .oo.ooooooooooooooo#####...##...########################.##.   ",
" .ooooooooooooooooo#########################################.   ",
" .ooooooooooooooo###########################################.   ",
" ............................................................   ",
"           .........................................            ",
"           .OOOOOOOOOOOOOOOOOOOOOOOOOOOOOOOOOOOOOOO.            ",
"           .OOOOOOOOOOOOOOOOOOOOOOOOOOOOOOOOOOOOOOO.            ",
"           .OOOOOOOOOOOOOOOOOOOOOOOOOOOOOOOOOOOOOOO.            ",
"           .OOOOOOOOOOOOOOOOOOOOOOOOOOOOOOOOOOOOOOO.            ",
"           .........................................            ",
"           .##############################ooooooooo.            ",
"           .##############################ooooooooo.            ",
"           .##############################ooooooooo.            ",
"           .##############################ooooooooo.            ",
"           .###############################oooooooo.            ",
"  XXXXXXXXX.##########.#################.##ooooooooXXXXXXXXX.   ",
"  X########.##########.#################.##ooooooooX########.   ",
"  X########.##########.########X########.##ooooooooX########.   ",
"  X########.##########.########X########.###oooooooX########.   ",
"  X########.##########.########X########.###oooooooX########.   ",
"  X########.##########.########X########.####ooooooX########.   ",
"  X########.##########.########X########.#####oooooX########.   ",
"  X########.##########.########X########.#######oooX########.   ",
"  X########.##########.########X########.#########oX########.   ",
"  X########X##########X########X########X##########X########X   ",
"  X########X##########X########X########X##########X########X   ",
"  X########X##########X########X########X##########X########X   "
};
