/* XPM */
static char *_1b0d0eb14284ba9954bd07f38626706jWJ8QoA7txqLekeE[] = {
/* columns rows colors chars-per-pixel */
"64 64 7 1 ",
"  c None",
". c black",
"X c #383738",
"o c #DB256E",
"O c #FB8960",
"+ c #E66CE6",
"@ c white",
/* pixels */
"                              .....                             ",
"                      .....  .@@@@@.   .....                    ",
"                     .@@@@@..@@@@@@@. .@@@@@.                   ",
"                    .@@@@@@@.@@@@@@@..@@@@@@@.                  ",
"                   .@@@@@@@@@.@@@@@@..@@@@@@@@.                 ",
"                   .@@@@@@@@@@@@@@@@.@@@@@@@@@.                 ",
"                   .@@@@@@@@@@@@@@@@@@@@@@@@@@.                 ",
"            ...     .@@@@@@@@@@@@@@@@@@@@@@@@.   ..             ",
"           .....     .@@@@@@@@@@@@@@@..@@@@@. .......           ",
"           .....      .....@@@@@@@@@@.......  .......           ",
"         .........         .@@@@@@@@@.      .....OO...          ",
"         ..OO...OO....     .@@@@@@@@@.     ......OOOO..         ",
"        ...OOOO...OO..     .@@@@@@@@@.     .OO.OOOOOOOO..       ",
"       ..OOOOOOO..OOOO.    .@@@@@@@@@.    ..OO.OOOOOOOO...      ",
"       ..OOOOOOO...OOO..   .@@@@@@@@@.    .O..OOOOOOOOOOO.      ",
"       .OOOOOOOOOO.OOOO... .@@@@@@@@@.  ...O..OOOOOOOOOOO.      ",
"       .OOOOOOOOOO.OOOO... .@@@@@@@@@.  ...O..OOOOOOOOOOO.      ",
"       .OOOOOOOOOO.OOOOO.. ...........  ..OO..OOOOOOOOOOO.      ",
"       .OOOOOOOOOO.OOOOO.......XX.........OO..OOOOOOOOOOO.      ",
"       .OOOOOOOOOOOOOOOOOOXXXOXXXOOXXOOOOOOO..OOOOOOOOOOO.      ",
"       .OOOOOOOOOOOOOOOOOOXXXOXXXOOXXOOOOOOOOOOOOOOOOOOOO.      ",
"       .OOOOOOOOOOOOOOOOOOXXXOXXXOOXXOOOOOOOOOOOOOOOOOOOO.      ",
"       .OOOOOOOOOOOOOOOOOOXXXOOOOOOXXOOOOOOOOOOOOOOOOOOOO.      ",
"       .OOOOOOOOOOOOOOOOOOXXXOOOOOOXXOOOOOOOOOOOOOOOOOOOO.      ",
"       .OOOOOOOOOOOOOOOOOOOXXOOOOOXXOOOOOOOOOOOOOOOOOOOOO.      ",
"       .OOOOOOOOOOOOOOOOOOOXXOOOOOXOOOOOOOOOOOOOOOOOOOOOO.      ",
"       .OOOOOOOOOOOOOOOOOOOOOOOOOOOOOOOOOOOOOOOOOOOOOOOOO.      ",
"       .OOOOOOOOOOOOOOOOOOOOOOOOOOOOOOOOOOOOOOOOOOOOOOOOO.      ",
"       .OOOOOOOOOOOOOOOOOOOOOOOOOOOOOOOOOOOOOOOOOOOOOOOOO.      ",
"       ..OOOOOOOOOO..OOOOOOOOOOOOOOOOOOO..OOOOOOOOOOOOOOO.      ",
"       ..OOOOOOOOOO..OOOOOOOOOOOOOOOOOOO..OOOOOOOOOOOOOOO.      ",
"       .O..OOOOOOOO..OOOOOOOOOOOOOOOOOOO..OOOOOOOOOOO..OO.      ",
"       .OOO..OOOOOO..OOOOOOOOOOOOOOOOOOO..OOOOOOOO...OOOO.      ",
"       .OOOOO..OOOO..OOOOOOOOOOOOOOOOOOO..OOOOO...OOOOOOO.      ",
"       ....OOOOOOOOOOOOOOOOOOOOOOOOOOOOOOOOO...OOOOOOOOOO.      ",
"       .OOO....OOOOOOOOO...OOO.OOOO.OOOOOOOOOOOOOOOOOOOOO.      ",
"       .OOOOOOOOOOOOOOOOOO.........OOOOOOOOOOO.....OOOOOO.      ",
"       .OOOOOOOOOOOOOOOOOO.........OOOOOOOOOOO.....OOOOOO.      ",
"       .oOOO....OOOOOOOOOOOOOO+OOOOOOOOOOOOOOOOOOOOOOOOOO.      ",
"       .oooOOOOOOOOOOOOOOOOOOOOOOOOOOOOOOOOOOO....OOOOOOO.      ",
"       .ooooOOOOOOOOOOOOOOOOOOOOOOOOOOOOOOOOOOOOOO...Oooo.      ",
"       .oooooOOOOOOOOOOOOOOOOOOOOOOOOOOOOOOOOOOOOOOOOoooo.      ",
"       .ooooooooOOOOOOOOOOOOOOOOOOOOOOOOOOOOOOOoooooooooo.      ",
"       .ooooooooooooOOOOOOOOOOOOOOOOOOOooooooooooooooooOO.      ",
"       .ooooooooooooOOOOOOOOOOOOOOOOOOOooooooooooooooooOX.      ",
"       .OooooooooooooooooooOOOOOOOoooooooooooooooooOOOOXX.      ",
"       .OOOOOOOOooooooooooooooooooooooooooOOOOOOOOOOOOXXX.      ",
"       .OOOOOOOOOOOOOOooooooooooooooooOOOOOOOOOOOOOOXXXXX.      ",
"       .XOOOOOOOOOOOOOOOOOOOOOOOOOOOOOOOOOOOOOOOOOOOXXXXO.      ",
"       .XXOOOOOOOOOOOOOOOOOOOOOOOOOOOOOOOOOOOOOOOOOXXXXOO.      ",
"       .XXXOOOOOOOOOOOOOOOOOOOOOOOOOOOOOOOOOOOOOOOXXXXOOO.      ",
"       .XXXXXXOOOOOOOOOOOOOOOOOOOOOOOOOOOOOOOOOOXXXXOOOOO.      ",
"       .OOXXXXXXOOOOOOOOOOOOOOOOOOOOOOOOOOOOOOOXXXXOOOOOO.      ",
"       .OOOOOOOOOOOOOOOOOOOOOOOOOOOOOOOOOOOOOOXXOOOOOOOOO.      ",
"       .OOOOOOOOOOOOOOOOOOOOOOOOOOOOOOOOOOOOOOOOOOOOOOO...      ",
"       .OOOOOOOOOOOOOOOOOOOOOOOOOOOOOOOOOOOOOOOOOOOOOOXX.       ",
"       .OOOOOOOOOOOOOOOOOOOOOOOOOOOOOOOOOOOOOOOOOOOXXXXX.       ",
"        XXXXXXOOOOOOOOOOOOOOOOOOOOOOOOOOOOOOOOOOOXXXXXX..       ",
"        .XXXXXXXXXOOOOOOOOOOOOOOOOOOOOOOOOOOOOOXXXXXXOO..       ",
"        ...XXXXXXOOOOOOOOOOOOOOOOOOOOOOOOOOOOOOXXXOOOO...       ",
"         ..OOOOOOOOOOOOOOOOOOOOOOOOOOOOOOOOOOOOOOOOOO..         ",
"           ..OOOOOOOOOOOOOOOOOOOOOOOOOOOOOOOOOOOOOO...          ",
"           ....OOOOOOOOOOOOOOOOOOOOOOOOOOOOOOOOOO....           ",
"             .....................................              "
};
