/* XPM */
static char *result[] = {
/* columns rows colors chars-per-pixel */
"64 64 5 1 ",
"  c black",
". c #DB6060",
"X c #EDC511",
"o c white",
"O c None",
/* pixels */
"OOOOOOOOOOOOOOOOOOOOOOO     o    o   OOOOOOOOOOOOOOOOOOOOOOOOOOO",
"OOOO    OOOOOOOOOOOOOOO  ooooo  oooo OOOOOOOOOOOOOOOOOOOOOOOOOOO",
"OOOO    OOOOOOOOOOOOOOO  ooooo  oooo OOOOOOOOOOOOOOOOOOOOOOOOOOO",
"OOOO    OOOOOOOOOOOOOO ooooooo  oooo     OOOOOOOOOOOOOO     OOOO",
"OOOO     OOOOOOOOOOOOO ooooooo  oooo   o  OOOOOOOOOOOO      OOOO",
"OOOO  X    OOOOOOOOOOO ooooooooooooo oooo OOOOOOOOOOO   X   OOOO",
"OOOO  XX    OOOOOOOOOOO  oooooooooooooooo OOOOOOOOO    XX   OOOO",
"OOOO  XXX    OOOOOO       ooooooooooooooo OOOOOOOO    XXX   OOOO",
"OOOO  XXXXX   OOOOO  oooo oooooooooooooo  OOOOOOO    XXXX   OOOO",
"OOOO  XXXXXX   OOOOO ooooooooooooooo     OOOOOOO   XXXXXX   OOOO",
"OOOO  XXXXXX   OOOOO ooooooooooooooo     OOOOOOO   XXXXXX   OOOO",
"OOOO  XXXXXXX   OOOO       oooooooo OOOOOOOOOOO   XXXXXXX   OOOO",
"OOOO  XXXXXXXX    OOOOOOOO oooooooo OOOOOOOOOO   XXXXXXXX   OOOO",
"OOOO  XXXXXXXXX    OOOOOOO oooooooo OOOOOOOO    XXXXXXXXX   OOOO",
"OOOO  XXXXXXXXXX    OOOOOO oooooooo OOOOOOO    XXXXXXXXXX   OOOO",
"OOOO  XXXXXXXXXXXX   OOOOO oooooooo OOOOO     XXXXXXXXXXX   OOOO",
"OOOO  XXXXXXXXXXXXX                         XXXXXXXXXXXXX   OOOO",
"OOOO  XXXXXXXXXXXXXX                       XXXXXXXXXXXXXX   OOOO",
"OOOO  XXXXXXXXXXXXXX                       XXXXXXXXXXXXXX   OOOO",
"OOOO  XXXXXXXXXXXXXXX                     XXXXXXXXXXXXXXX   OOOO",
"OOOO  XXXXXXXXXXXXXXXXXXXXXXXXXXXXXXXXXXXXXXXXXXXXXXXXXXX   OOOO",
"OOOO  XXXXXXXXXXXXXXXXXXXXXXXXXXXXXXXXXXXXXXXXXXXXXXXXXXX   OOOO",
"OOOO  XXXXXXXXXXXXXXX XXXXXXXXXXXXXXXXXX XXXXXXXXXXXXXXXX   OOOO",
"OOOO  XXXXXXXXXXXXXX   XXXXXXXXXXXXXXXX   XXXXXXXXXXXXXXX   OOOO",
"OOOO  XXXXXXXXXXXXX     XXXXXXXXXXXXXX     XXXXXXXXXXXXXX   OOOO",
"OOOO  XXXXXXXXXXXXX     XXXXXXXXXXXXXX     XXXXXXXXXXXXXX   OOOO",
"OOOO  XXXXXXXXXXXXX     XXXXXXXXXXXXXX     XXXXXXXXXXXXXX   OOOO",
"OOOO  XXXXXXXXXXXXX     XXXXXXXXXXXXXX     XXXXXXXXXXXXXX   OOOO",
"OOOO  XXXXXXXXXXXXX     XXXXXXXXXXXXXX     XXXXXXXXXXXXXX   OOOO",
"OOOO  XXXXXXXXXXXXX     XXXXXXXXXXXXXX     XXXXXXXXXXXXXX   OOOO",
"OOOO  XXXXXXXXXXXXXX   XXXXXXXXXXXXXXXX   XXXXXXXXXXXXXXX   OOOO",
"OOOO  XXXXXXXXXXXXXXX XXXXXXX    XXXXXXX XXXXXXXXXXXXXXXX   OOOO",
"OOOO  XXXXXXXX.......XXXXXXXXX  XXXXXXXXX.......XXXXXXXXX   OOOO",
"OOOO  XXXXXXXX.......XXXXXX X .. X XXXXXX.......XXXXXXXXX   OOOO",
"OOOO  XXXXXXXX.......XXXXXXX .... XXXXXXX.......XXXXXXXXX   OOOO",
"OOOO  XXXXXXXXXXXXXXXXXXXXXX .... XXXXXXXXXXXXXXXXXXXXXXX   OOOO",
"OOOO  XXXXXXXXXXXXXXXXXXXXXXXXXXXXXXXXXXXXXXXXXXXXXXXXXXX   OOOO",
"OOOO  XXXXXXXXXXXXXXXXXXXXXXXXXXXXXXXXXXXXXXXXXXXXXXXXXXX   OOOO",
"OOOO  XXXXXXXXXXXXXXXXXXXXXXXXXXXXXXXXXXXXXXXXXXXXXXXXXXX   OOOO",
"OOOO  XXXXXXXXXXXXXXXXXXXXXXXXXXXXXXXXXXXXXXXXXXXXXXXXXXX   OOOO",
"OOOO  XXXXXXXXXXXXXXXXXXXXXXXXXXXXXXXXXXXXXXXXXXXXXXXXXXX   OOOO",
"OOOO  XXXXXXXXXXXXXXXXXXXXXXXXXXXXXXXXXXXXXXXXXXXXXXXXXXX   OOOO",
"OOOO  XXXXXXXXXXXXXXXXXXXXXXXXXXXXXXXXXXXXXXXXXXXXXXXXXXX   OOOO",
"OOOO  XXXXXXXXXXXXXXXXXXXXXXXXXXXXXXXXXXXXXXXXXXXXXXXXXXX   OOOO",
"OOOO  XXXXXXXXXXXXXXXXXXXXXXXXXXXXXXXXXXXXXXXXXXXXXXXXXXX   OOOO",
"OOOO   XXXXXXXXXXXXXXXXXXXXXXXXXXXXXXXXXXXXXXXXXXXXXXXXX    OOOO",
"OOOO   XXXXXXXXXXXXXXXXXXXXXXXXXXXXXXXXXXXXXXXXXXXXXXXXX    OOOO",
"OOOO   XXXXXXXXXXXXXXXXXXXXXXXXXXXXXXXXXXXXXXXXXXXXXXXXX    OOOO",
"OOOO   XXXXXXXXXXXXXXXXXXXXXXXXXXXXXXXXXXXXXXXXXXXXXXXXX  OOOOOO",
"OOOOO  XXXXXXXXXXXXXXXXXXXXXXXXXXXXXXXXXXXXXXXXXXXXXXXXX  OOOOOO",
"OOOOO  XXXXXXXXXXXXXXXXXXXXXXXXXXXXXXXXXXXXXXXXXXXXXXXXX  OOOOOO",
"OOOOO  XXXXXXXXXXXXXXXXXXXXXXXXXXXXXXXXXXXXXXXXXXXXXXXXX  OOOOOO",
"OOOOO  XXXXXXXXXXXXXXXXXXXXXXXXXXXXXXXXXXXXXXXXXXXXXXXXX  OOOOOO",
"OOOOOO  XXXXXXXXXXXXXXXXXXXXXXXXXXXXXXXXXXXXXXXXXXXXXXX  OOOOOOO",
"OOOOOO  XXXXXXXXXXXXXXXXXXXXXXXXXXXXXXXXXXXXXXXXXXXXXXX  OOOOOOO",
"OOOOOOO  XXXXXXXXXXXXXXXXXXXXXXXXXXXXXXXXXXXXXXXXXXXXXX  OOOOOOO",
"OOOOOOO  XXXXXXXXXXXXXXXXXXXXXXXXXXXXXXXXXXXXXXXXXXXXX  OOOOOOOO",
"OOOOOOO  XXXXXXXXXXXXXXXXXXXXXXXXXXXXXXXXXXXXXXXXXXXXX  OOOOOOOO",
"OOOOOOOO   XXXXXXXXXXXXXXXXXXXXXXXXXXXXXXXXXXXXXXXXXX  OOOOOOOOO",
"OOOOOOOO   XXXXXXXXXXXXXXXXXXXXXXXXXXXXXXXXXXXXXXXXXX  OOOOOOOOO",
"OOOOOOOO     XXXXXXXXXXXXXXXXXXXXXXXXXXXXXXXXXXXXXX    OOOOOOOOO",
"OOOOOOOOO                                             OOOOOOOOOO",
"OOOOOOOOO                                            OOOOOOOOOOO",
"OOOOOOOOOOOOOOOOOOOOOOOOOOOOOOOOOOOOOOOOOOOOOOOOOOOOOOOOOOOOOOOO"
};
