/* XPM */
static char *_b75e522ae244d6ca625a50106552375spiHbxaFgXCBt2dh[] = {
/* columns rows colors chars-per-pixel */
"64 64 21 1 ",
"  c None",
". c black",
"X c #080A0A",
"o c #5B5E1C",
"O c #7D552D",
"+ c #695F3F",
"@ c #A16E38",
"# c #963074",
"$ c #8C7D49",
"% c #AB9A57",
"& c #A6955D",
"* c #8BBF50",
"= c #D9984E",
"- c #E6A259",
"; c #CFBB63",
": c #FFBC75",
"> c #F21DA4",
", c #F779CB",
"< c #EDDB8B",
"1 c #8BD9C8",
"2 c #D3EDEA",
/* pixels */
"                                                                ",
"                                                                ",
"                                                                ",
"                                                                ",
"                                                                ",
"                                                                ",
"                                 X                              ",
"                               XXXX                             ",
"                              XX==XXX                           ",
"                             XX====XXX                          ",
"                           XX========XX                         ",
"                          XX==========XXX                       ",
"                         XX============XXX                      ",
"                       XX================XX                     ",
"                      XX==================XX                    ",
"                     XX====================XXX                  ",
"                   XXX======================XXX                 ",
"                  XX==========================XX                ",
"                 XX============================XXX              ",
"               XXX==============================XXX             ",
"              XX===============...================XX            ",
"             XX==============..2.2..===============XXX          ",
"           XXX===============.22.22.================XXX         ",
"          XX================.222.222.=================XX        ",
"         XX=================.........==================XX       ",
"       XXX==================.222.222.===================XXX     ",
"      XXX===================@.22.22.@====================XXX    ",
"     XX=====================@..2.2..@======================XX   ",
"   XXX======================O@@...@@@=======================XXX ",
"  XXX========================OO@@@OO=========================XXX",
" XXOOOOOOOOOOOOOOOOOOOOOOOOOOOOOOOOOOOOOOOOOOOOOOOOOOOOOOOOOOOOX",
" XXXXXXXXXXXXXXXXXXXXXXXXXXXXXXXXXXXXXXXXXXXXXXXXXXXXXXXXXXXXXXX",
" XXXXXXXXX+++++++++++++++++++++++++++++++++++++++++++++X        ",
"        XX$$$$$$$$$$$$$$$$$$$$$$$$$$$$$$$$$$$$$$$$$$$$$X        ",
"        XX&&&&&&&&&&&&&&&&&&&&&&&&&&&&&&&&&&&&&&&&&&&&&X        ",
"        XX;;;;;;;;;;;;;;;;;;;;;;;;;;;;;;;;;;;;;;;;;;;;;X        ",
"        XX;;;;..........;;;;;;;;;;;;;;;;;;..........;;;X        ",
"        XX;;;;.222.2222.;;;;;;;;;;;;;;;;;;.2222.222.;;;X        ",
"        XX;;;;.222.2222.;;;;;;;;;;;;;;;;;;.2222.222.;;;X        ",
"        XX;;;;.222.2222.;;;;;;;;;;;;;;;;;;.2222.222.;;;X        ",
"        XX;;;;..........;;;;;;;;;;;;;;;;;;..........;;;X        ",
"        XX;;;;.222.2222.;;;;;;;;;;;;;;;;;;.2222.222.;;;X        ",
"        XX;;;;.222.2222.;;;;;;;;;;;;;;;;;;.2222.222.;;;X        ",
"        XX;;;;..........;;;;;;;;;;;;;;;;;;..........;;;X        ",
"        XX;;;;%%%%%%%%%%;;;;;;;;;;;;;;;;;;%%%%%%%%%%;;;X        ",
"        XX;;;;;;;;;;;;;;;;;;;;;;;;;;;;;;;;;;;;;;;;;;;;;X        ",
"        XX;;;;;;;;;;;;;;;;;...........;;;;;;;;;;;;;;;;;X        ",
"        XX;;;;;;;;;;;;;;;;;...........;;;;;;;;;>>>;;;;;X        ",
"        XX;;;;;>>>;;;;;;;;;...........;;;;;;;;>#,#>;;;;X        ",
"        XX;;;;>#,#>;;;;;;;;...........;;;;;;;;>,>,>;;;;X        ",
"        XX;;;;>,>,>;;;;;;;;...........;;;;;;;;>#,#>;;;;X        ",
"        XX;;;;>#,#>;;;;;;;;...........;;;;;;;;;>>>;;;;;X        ",
"        XX;;;;;>>>;;;;;;;;;...........;;;;;;;;;;*;;;;;;X        ",
"        XX;;;;;;*;;;;;;;;;;...........;;;;;;;;;;*;;;;;;X        ",
"        XX;;;;;;*;;;;;;;;;;.......<<..;;;;;;;;;;*;;;;;;X        ",
"        XX;;;;;;;*;;;;;;;;;...........;;;;;;;;;*;;;;;;;X        ",
"        XX;;;;;;;*;;;;;;;;;...........;;;;;;;;;*;;;;;;;X        ",
"        XX;;;;;;;*;;;;;;;;;...........;;;;;;;;;*;;;;;;;X        ",
"        XX;;;;oooooooo;;;;;...........;;;;;oooooooo;;;;X        ",
"        XX;;;=-:<<<<:-=;;;;...........;;;;=-::<<<:-=;;;X        ",
"        XX;;;=-:<#<<:-=;;;;...........;;;;=-::<#<:-=;;;X        ",
"        XX;;;=-:#1#<:-=;;;;...........;;;;=-::#1#:-=;;;X        ",
"        XX;;;=-:<#<<:-=;;;;...........;;;;=-::<#<:-=;;;X        ",
"        XX+++++++++++++++++++++++++++++++++++++++++++++X        "
};
