/* XPM */
static char *cd994eb32ed946b08fbad765767cf598Ea0jA2DGR5h81DJL[] = {
/* columns rows colors chars-per-pixel */
"64 64 108 2 ",
"   c #000001",
".  c #02030B",
"X  c #070A0E",
"o  c #0C0C0D",
"O  c #000316",
"+  c #0E0F11",
"@  c #00041A",
"#  c #0F1012",
"$  c #141415",
"%  c #161619",
"&  c #18181A",
"*  c #000926",
"=  c #24232B",
"-  c #2E2D36",
";  c #2F2D39",
":  c #302E37",
">  c #302D3A",
",  c #333335",
"<  c #393939",
"1  c #243144",
"2  c #333242",
"3  c #393747",
"4  c #3D3C4B",
"5  c #373155",
"6  c #37325B",
"7  c #413F4D",
"8  c #37465D",
"9  c #424245",
"0  c #43414F",
"q  c #424151",
"w  c #4B4A5C",
"e  c #4F4D62",
"r  c #514E63",
"t  c #555266",
"y  c #585567",
"u  c #56546A",
"i  c #58556B",
"p  c #535D6F",
"a  c #5B586D",
"s  c #5E5B73",
"d  c #615E75",
"f  c #576071",
"g  c #636075",
"h  c #686C73",
"j  c #66647D",
"k  c #68667E",
"l  c #70747A",
"z  c #7A7A7B",
"x  c #5B568F",
"c  c #5D5591",
"v  c #5D5891",
"b  c #645E95",
"n  c #49638A",
"m  c #4B6897",
"M  c #4B679C",
"N  c #4A689B",
"B  c #676581",
"V  c #686683",
"C  c #6C6883",
"Z  c #6A639D",
"A  c #617599",
"S  c #4A69A0",
"D  c #5472A4",
"F  c #5E7EB3",
"G  c #6C61A4",
"H  c #6C62AB",
"J  c #7268A7",
"K  c #766BAB",
"L  c #607EA6",
"P  c #617FB4",
"I  c #5F80B5",
"U  c #7387A8",
"Y  c #6080B5",
"T  c #6986BB",
"R  c #6B89BD",
"E  c #738BB0",
"W  c #778FB9",
"Q  c #7790BE",
"!  c #6F91C1",
"~  c #7492C2",
"^  c #7894C1",
"/  c #7D9AC5",
"(  c #8E9BAB",
")  c #A3A3A3",
"_  c #B6B6B6",
"`  c #8EA6CD",
"'  c #9AAECF",
"]  c #9AAED2",
"[  c #9DB5D6",
"{  c #A1B6D7",
"}  c #A5B9D6",
"|  c #A8B9D7",
" . c #A3B5D9",
".. c #A2B9DC",
"X. c #A9BCDA",
"o. c #9FB4E1",
"O. c #B2C3DE",
"+. c #B9C9DE",
"@. c #B0C0E0",
"#. c #B9C9E1",
"$. c #C0CDE4",
"%. c #CBD6E7",
"&. c #C6D4EA",
"*. c #CBD6E8",
"=. c #CFDEEB",
"-. c #D1DCEB",
";. c #D3E0F0",
":. c #75BB99",
/* pixels */
":.:.:.:.:.:.:.:.:.:.:.:.:.:.:.:.:.:.:.:.:.:.:.:.:.:.:.:.:.:.:.:.:.:.:.:.:.:.:.:.:.:.:.:.:.:.:.:.:.:.:.:.:.:.:.:.:.:.:.:.:.:.:.:.",
":.:.:.:.:.:.:.:.:.      ) :.:.      :.:._       :.:.:.:.:.:.:.:.:.:.:.:.:.:.:.:.      o :.:.+     :.:.:.      :.:.:.:.:.:.:.:.:.",
":.:.:.:.:.:.:.:.:.  u   ) :.:.  y   :.:._   t   :.:.:.:.:.:.:.:.:.:.:.:.:.:.:.:.  y . o :.:.  i   :.:.:.  i   :.:.:.:.:.:.:.:.:.",
":.:.:.:.:.:.:.:.:.              u             o :.:.:.:.:.:.:.:.:.:.:.:.:.:.:.:.    $ o       u               :.:.:.:.:.:.:.:.:.",
":.:.:.:.:.:.:.:.:.  q q q q q   u   0 q q q w   :.:.:.:.:.:.:.:.:.:.:.:.:.:.:.:.  7 q 0 q 0   u   7 q q q q   :.:.:.:.:.:.:.:.:.",
":.:.:.                                  $                                                                                 :.:.:.",
":.:.  -.{ { { { { { { { { { { { { { X.{ { {  . .{ { { { { { #.#.#.#.+.#.#.#.#.#.#.#.#.#.#.#.#.#.%.*.*.*.%.*.*.*.%.#.#.#.{   :.:.",
":.:.  -.{ { { ` ` ` ` ` ` ` ` ` ` ` ` ` ` ` ` ` ` ` ` ` ` ` ' ] ] ] ] ] ] ] ] ] ] ] ] ] ] #.#.#.%.*.*.*.*.*.*.*.-.#.#.#.{   :.:.",
":.:.  -.} ..~ ~ ~ ~ ~ ~ ~ ~ ~ ~ ~ ~ ~ ~ ~ ~ ~ ~ ~ ~ ~ ~ ~ ~ ~ ~ ~ ~ ~ ~ ~ ~ ~ ~ ~ ~ ~ ~ ~ ~ #.#.*.*.*.*.*.*.*.*.*.$.#.#.{   :.:.",
":.:.  -.{ ..~ ~ ~ ~       . ~ ~ ~ ~ ~ .       ~ ~ ~ ~ ~ ~       ~ ~ ~ ~ ~ ~       ! ~ ~ ~ ~ +.#.*.*.*.*.      *.*.#.#.#.{   :.:.",
":.:.  -.{ [ ~ ~ ~   - 4 2 -   ~ ~ ~ . - 3 i u   ~ ~ ~ 8   > 4 >   ~ ~ ~ ~   ; 4 -   E ~ ~ ~ +.#.*.*.h   > 4 ;   *.$.#.#.{   :.:.",
":.:.  -.} o.~ ~   u - 4 2 > i   ~   ; 4 3 - u u . ~   ; i ; 4 - g o W U   i > 4 ; u . X ~ ~ #.#.*.  : i > w ; u   ( #.#.{   :.:.",
":.:.  -. .o.~ Y   u - 4 2 ; u   ~   u ; 2 4 ; i   ~   - u ; 4 4 a   W U   u ; 4 ; i   X Y ~ +.#.*.  , u ; 4 ; u   ( #.#.{   :.:.",
":.:.  -. .[ Y Y   u - 4 2 ; i   Y   u u w ; 4 ;   Y . - y > 4 > u   L A   u ; 4 - u . O Y Y #.+.*.  ; u ; 4 ; u   ( #.#. .  :.:.",
":.:.  -.} ..Y F D + ; 4 2 -   S Y N   i u u ;   N Y S 1 . 7 4 -   S P F N   > 4 ;   n N Y Y #.#.%.{ p   - 4 :   { O.#.#.{   :.:.",
":.:.  -.{ o.Y R T M @ O O @ S P Y Y S * @ @ @ N Y Y Y D S @ @ @ Y Y P I F S @ @ @ N F I Y Y #.#.%.*.+.{ . . . | *.#.#.#.{   :.:.",
":.:.  -.{ { o.Y Y Y F F F F Y Y Y Y I I F F F I Y Y Y Y Y I F F Y I Y F I I I I I I I I I [ #.#.*.*.*.%.&.&.&.*.*.#.#.#. .  :.:.",
":.:.  -.} } { { [  .{  .{ { [  .{ { { {  . .{ [ { [ { { { { { [ { {  .[ { { { { { { {  .[ #.#.+.%.*.*.*.*.*.*.*.*.#.#.#.{   :.:.",
":.:.  -.{ {  .{ } [ [ } {  .[  .{ { { { [  .{ {  . . .{  .{ #.#.#.#.#.#.#.#.#.#.#.#.#.#.#.#.#.#.%.*.*.*.*.*.*.*.*.$.#.#.{   :.:.",
":.:.  -.{ [ { {  .[  . .{ { } [ { { { { } { { { [ } [ { [ { #.#.#.#.#.#.#.+.#.#.#.#.#.+.#.#.#.#.%.*.*.*.*.*.*.*.*.$.#.#.{   :.:.",
":.:.  -.{ { { { {                                                                 #                           *.*.#.#.#.{   :.:.",
":.:.  -.{ { { {   x c x c x c x x x x b c x c c x x c c c G G G G G G G G G G G K G G G G G G G G G G G G c c   *.#.#.#.{   :.:.",
":.:.  -.{ { {   x c         x x x x Z x x x x x x x x c x G G G G G G G G G K K G G G G G G G G G G 5       x x   ( #.#.{   :.:.",
":.:.  -.{ { {   v   q e u i   , , 9 , , , , , , , , , , , , , < < < < < < < < < < < < < < < < < <   = 7 r u   x   ( #.#.{   :.:.",
":.:.  -.{ { {   x   0 q q 7   % = $ $ $ $ $ $ # $ # $ $ $ $ $ $ % % $ $ % $ % $ $ $ % % $ % & % %   = q 0 q   x   ( #.#.}   :.:.",
":.:.  -.{ { {   x x       . G Z v c c b c c b c b c c c c H H H H H H H H H H H H H H H H H H H H H 6       G x   ( #.#.{   :.:.",
":.:.  -.{ { }   x x b c c c x x x x x x x x x x x x c x c G G G G G G G G G G G G G G G G G G G G G G G G K G x   ( #.#.{   :.:.",
":.:.  -.{ { {   x x x x x x x x x x x x x x v x x x x x x G G G G G G G G G G G G G G G G G G G G G G G J G G x   ( #.#.{   :.:.",
":.:.  -.{ { {   x x v                                                                               . +   G G x   ( #.#.{   :.:.",
":.:.  -.{ { {   x x   w w w u u V u u u u u u u i i u u i a i u V V V V V V u a u u u i V V u u a d y y y   G x   ( #.#.{   :.:.",
":.:.  -.{ { {   x x   w w w w B u u u u u u u u u u u t i i u V V V V B V u u u u u j B B u u u i i u u u   G x   ( #.#.{   :.:.",
":.:.  -. .{ {   x x   w w w B w w w u u u u u u u u u d u i V V V V B j u u u u u B B k u u u u u u u u y   G x   ( #.#.{   :.:.",
":.:.  -.{ { X.  x x   j u w w w w w w w w w w e a s u d B V V V V i u u u u u j V u u u u u u u u u u u u   G x   ( #.#.}   :.:.",
":.:.  -.| { {   x x   w w w w w w w w w w w w w w w B B B V V V u u u u u u B B u u u u i u u u u u u u y   G x   ( #.#.[   :.:.",
":.:.  -.{ { {   c x   w w w w w w w w w w w w w w V V V V V V u u u u i u B V u u u u u u u u u u u u u u   G x   ( #.#.{   :.:.",
":.:.  -. .{ {   x x   w w w w w w w w w w w w w V V V V V B w w u u u i V V u u u u u u u u u u u u u i k   G x   ( #.#.{   :.:.",
":.:.  -. .{ {   x x   w w w w w w w w w w w w V V V V V B w w w w w B B B i i u u u u u u u u u u u s V u   G x   ( #.#.}   :.:.",
":.:.  -. .{ {   x x   w w w w w w w w w w w V V V V V a w w w w w V V j w w i f i u u u u u u u u V s u i   G x   ( #.#.{   :.:.",
":.:.  -.{ { {   v x   w w w w w w w w w u B V V B B w w w w w w V V w w w w r w u u u u u u u u V u u u u   G x   ( #.#.{   :.:.",
":.:.  -.{ { {   x x   w w w w w w w e B V V V V j w w w w w e V j w w w t w w w w w r u u u u j u u u u u   G x   ( #.#.{   :.:.",
":.:.  -. .{ {   x x   w w w w a w s V V V V V r w e w w e s B r w w a a w w w w w w w w e s r e u u u u y   G x   ( #.#.[   :.:.",
":.:.  -. .{ {   x x   w w w r w B B V V V V w e w w w a B B w w w w w w w w w w w w w w V w e w w w r u y   G x   ( #.#.{   :.:.",
":.:.  -.{ { {   x x   w e w w V V V V V d w w w e w V B B w w e w w w w e w w w w w B j w w w w w w w w w   G x   ( #.#.{   :.:.",
":.:.  -. .{ {   x x b $             .                                                                     G G x   ( #.#.{   :.:.",
":.:.  -. .{ {   x x x x x x x x x x x x c c x x x x x x x G G G H G G G H G G G H H G G H G G G G G G G G G x x   ( #.#.{   :.:.",
":.:.  -. .{ { {   x x x x x x x x x c x c x x x x x x x c G G G G G G G G G G G G G G G G G G G H G G G G x x   *.#.#.+.{   :.:.",
":.:.  -. .{ { { {                                                                             $ $             *.*.#.#.#.{   :.:.",
":.:.  -. .{ { { { { { { { { { { { { { { { { { { { { { { { { #.+.#.#.#.#.#.#.#.#.#.#.#.#.#.#.#.#.%.*.*.*.*.*.*.*.*.#.#.#.{   :.:.",
":.:.  -. .{ {  .{ {  . .[ [  . . . .[  . .[  . .{ { { {  . .#.#.#.+.#.#.#.#.#.+.+.#.#.#.$.#.#.#.%.*.*.*.%.%.*.*.*.#.#.#.}   :.:.",
":.:.  -. . .{ { =.-.=.-.-.;.=.=.=.-.-.=.;.-.-.;.=.-.=.=.-.-.=.-.*.-.-.-.-.*.-.-.=.-.-.-.-.*.-.-.-.-.-.-.-.-.-.-.*.#.#.#.[   :.:.",
":.:.  -. .{ { -.~ ~ ~ ~ ~ ~ ~ ~ ~ ~ ~ ~ ~ ~ ^ ~ Q ~ ~ ~ ~ Q ~ ~ ~ ~ ~ ~ ~ Q ~ ~ ~ Q ~ Q Q ~ ~ ~ ~ ~ Q Q ~ ~ Q ~ -.$.#.#.{   :.:.",
":.:.  -. .{ { ~ ~ ~ ~ ~ ~ ~ ~ ~ ~ ~ ~ ~ / ~ ~ ~ ~ ~ ~ ~ ~ ~ ~ ~ ~ ~ ~ ~ ~ ~ ~ ~ ~ ~ ~ ~ ~ ~ ~ ~ ~ ~ ~ ~ ~ ~ ~ ~ ~ X.+.#.{   :.:.",
":.:.  -. .{ { ~ ~ ~ ~ ~ ~ ~ ~ ~ ~ ~ ~ ~ ~ ~ ~ ~ ~ ~ ~ ~ ~ ~ ~ ~ ~ ~ ~ ~ ~ ~ ~ ~ ~ ~ ~ ~ ~ ~ ~ ~ ~ ~ ~ ~ ~ ~ ~ ~ ~ X.#.#.{   :.:.",
":.:.  -. .{  .P ~ ~ ~ ~ ~ ~ ~ ~ ~ ~ ~ ~ ~ ~ ~ ~ ~ ~ ~ ~ ~ ~ ~ ^ ~ ~ ~ ~ ~ ~ ~ ~ ~ ~ ~ ~ ~ ~ ~ ~ ~ ~ ~ ~ ~ ~ ~ ~ I } #.#.{   :.:.",
":.:.  -. .{ { N P P P P P P F P P P P P F Y P P Y Y Y Y Y Y Y P Y Y Y Y P P P P P P I P P P P P Y Y Y F Y Y P Y N [ #.#.{   :.:.",
":.:.  -. .{ { { M M M M M M M M S M M M M M M N M M M M M M m m m m m D N m N m N N N N m N N N m N m m N m m N -.#.#.#.{   :.:.",
":.:.z l +.#.{  . .[  . .[  . . . . .[  . .{  . . . .{  . . .#.#.#.#.#.#.#.#.#.#.#.#.#.#.#.#.#.#.*.*.*.*.*.*.*.-.*.#.#.@.p z :.:.",
":.:.:.:.                                                          o                                                     :.:.:.:.",
":.:.:.:.:.:.  > q q   :.:.:.:.:.:.:.:.:.:.:.:.:.:.:.:.:.:.:.:.:.:.:.:.:.:.:.:.:.:.:.:.:.:.:.:.:.:.:.:.:.:.  - q q $ + :.:.:.:.:.",
":.:.:.:.:.:.        + :.:.:.:.:.:.:.:.:.:.:.:.:.:.:.:.:.:.:.:.:.:.:.:.:.:.:.:.:.:.:.:.:.:.:.:.:.:.:.:.:.:.          $ :.:.:.:.:.",
":.:.:.:.    e w u C u   ) :.:.:.:.:.:.:.:.:.:.:.:.:.:.:.:.:.:.:.:.:.:.:.:.:.:.:.:.:.:.:.:.:.:.:.:.:.:.:.  w w u V a e   :.:.:.:.",
":.:.:.:.    w e d V u   ) :.:.:.:.:.:.:.:.:.:.:.:.:.:.:.:.:.:.:.:.:.:.:.:.:.:.:.:.:.:.:.:.:.:.:.:.:.:.:.  w w u V s e   :.:.:.:.",
":.:.:.:.    o $         ) :.:.:.:.:.:.:.:.:.:.:.:.:.:.:.:.:.:.:.:.:.:.:.:.:.:.:.:.:.:.:.:.:.:.:.:.:.:.:.                :.:.:.:.",
":.:.:.:.:.:.:.:.:.:.:.:.:.:.:.:.:.:.:.:.:.:.:.:.:.:.:.:.:.:.:.:.:.:.:.:.:.:.:.:.:.:.:.:.:.:.:.:.:.:.:.:.:.:.:.:.:.:.:.:.:.:.:.:."
};
