/* XPM */
static char *_0c3d052a5c64bc3f88950988e21e921jD1Du4A6CZk00XQa[] = {
/* columns rows colors chars-per-pixel */
"64 64 8 1 ",
"  c None",
". c black",
"X c gray7",
"o c #5E3140",
"O c #9C2843",
"+ c #BB2D0C",
"@ c #85455B",
"# c #80ED3B",
/* pixels */
"                                                                ",
"                                                                ",
"                                                                ",
"                                                                ",
"                                                                ",
"                                                                ",
"                                                                ",
"                         ...                                    ",
"                         .##..     .....                        ",
"                         .###..   ..oo..                        ",
"                         .####.   .ooo.                         ",
"                         .#####.  .oo..                         ",
"                         ..####. .ooo.                          ",
"                          .#####..oo.                           ",
"                          ..####..oo.                           ",
"                  X..      ..####.oo.   ......                  ",
"                 XXOO..........##.oo. ...+++++.                 ",
"                XXO+++++++++++..#.oo...++++++++..               ",
"               XXO+++++++++++++oo.o..++++++++++++.              ",
"              XX+++++++++++++++ooo.oo+++++++++++++.             ",
"             XX+++++++++++++++++ooo++++++++++++++++.            ",
"            .XO+++++++++++++++++oo++++++++++++++++++.           ",
"            XO+++++++++++++++++++o++++++++++++++++++.           ",
"           XXO+++++++++++++++++++++++++++++++++++++++.          ",
"          XXO+++++++++++++++++++++++++++++++++++++++++.         ",
"          XO++++++++++++++++++++++++++++++++++++++++++.         ",
"         XoO+++++++++++++++++++++++++++++++++++++++++++.        ",
"         .oO+++++++++++++++++++++++++++++++++++++++++++.        ",
"         .@O+++++++++++++++++++++++++++++++++++++++++++.        ",
"        .o@O++++++++++++++++++++++++++++++++++++++++++++.       ",
"        .o@O++++++++++++++++++++++++++++++++++++++++++++.       ",
"        .o@O++++++++++++++++++++++++++++++++++++++++++++.       ",
"        .o@O++++++++++++++++++++++++++++++++++++++++++++.       ",
"        .o@O++++++++++++++++++++++++++++++++++++++++++++.       ",
"        .o@O++++++++++++++++++++++++++++++++++++++++++++.       ",
"        .o@O++++++++++++++++++++++++++++++++++++++++++++.       ",
"        .o@OO+++++++++++++++++++++++++++++++++++++++++++.       ",
"        .o@OO+++++++++++++++++++++++++++++++++++++++++++.       ",
"         .o@OO+++++++++++++++++++++++++++++++++++++++++.        ",
"         .o@@O+++++++++++++++++++++++++++++++++++++++++.        ",
"         .o@OOO++++++++++++++++++++++++++++++++++++++++.        ",
"          .@@OO+++++++++++++++++++++++++++++++++++++++.         ",
"          .@@@OO++++++++++++++++++++++++++++++++++++++.         ",
"           .@@@OO++++++++++++++++++++++++++++++++++++.          ",
"            o@@@OO++++++++++++++++++++++++++++++++OOXX          ",
"            .oo@@OOO+++++++++++++++++++++++++++++OOXX           ",
"             .oo@@OOO+++++++++++++++++++++++++++OOoX            ",
"              .oo@OOOO+++++++++++++++++++++++++OOo.X            ",
"               .oo@@@OOOO+++++++++O++++++++OOOOOoXX             ",
"                ..ooo@@OOOOOOOOOOOOO++++OOOOOoo.XX              ",
"                  .oooo@@OO@@OOOOOOOOOOOOOOoooXX                ",
"                   ..ooo@@@@ooooooooOOOOOooo.XX                 ",
"                     ..oooooooo....ooooOOO..XX                  ",
"                      ..........   ......X                      ",
"                                                                ",
"                                                                ",
"                                                                ",
"                                                                ",
"                                                                ",
"                                                                ",
"                                                                ",
"                                                                ",
"                                                                ",
"                                                                "
};
